<?xml version="1.0" standalone="no"?>
<!DOCTYPE svg PUBLIC "-//W3C//DTD SVG 20010904//EN"
 "http://www.w3.org/TR/2001/REC-SVG-20010904/DTD/svg10.dtd">
<svg version="1.0" xmlns="http://www.w3.org/2000/svg"
 width="128.000000pt" height="128.000000pt" viewBox="0 0 128.000000 128.000000"
 preserveAspectRatio="xMidYMid meet">

<g transform="translate(0.000000,128.000000) scale(0.100000,-0.100000)"
fill="#000000" stroke="none">
<path d="M416 1264 c-253 -61 -430 -327 -387 -581 34 -196 190 -369 376 -418
122 -31 264 -15 376 44 l57 30 157 -165 c87 -92 167 -167 181 -170 29 -7 70
16 79 45 10 32 -8 56 -164 219 -80 85 -147 157 -149 161 -1 5 12 30 31 57 69
103 99 284 67 405 -36 135 -146 269 -272 331 -118 59 -229 72 -352 42z m287
-158 c293 -149 284 -556 -15 -690 -182 -82 -400 -1 -489 180 -98 198 -7 434
200 521 48 20 69 23 151 21 82 -3 104 -8 153 -32z"/>
</g>
</svg>
