<?xml version="1.0" encoding="UTF-8"?>
<!DOCTYPE svg PUBLIC "-//W3C//DTD SVG 1.1//EN" "http://www.w3.org/Graphics/SVG/1.1/DTD/svg11.dtd">
<svg xmlns="http://www.w3.org/2000/svg" version="1.1" width="50px" height="50px" style="shape-rendering:geometricPrecision; text-rendering:geometricPrecision; image-rendering:optimizeQuality; fill-rule:evenodd; clip-rule:evenodd" xmlns:xlink="http://www.w3.org/1999/xlink">
<g><path style="opacity:0.985" fill="#40c056" d="M -0.5,12.5 C 9.83333,12.5 20.1667,12.5 30.5,12.5C 30.5,23.1667 30.5,33.8333 30.5,44.5C 26.5,44.5 22.5,44.5 18.5,44.5C 18.6085,46.5138 17.9418,48.1805 16.5,49.5C 13.8333,49.5 11.1667,49.5 8.5,49.5C 7.05817,48.1805 6.39151,46.5138 6.5,44.5C 4.16667,44.5 1.83333,44.5 -0.5,44.5C -0.5,33.8333 -0.5,23.1667 -0.5,12.5 Z M 10.5,40.5 C 15.1585,40.0146 16.4919,41.848 14.5,46C 9.72816,46.8104 8.39483,44.9771 10.5,40.5 Z"/></g>
<g><path style="opacity:0.941" fill="#40c056" d="M 49.5,28.5 C 49.5,33.8333 49.5,39.1667 49.5,44.5C 47.8333,44.5 46.1667,44.5 44.5,44.5C 44.6085,46.5138 43.9418,48.1805 42.5,49.5C 39.8333,49.5 37.1667,49.5 34.5,49.5C 34.2172,48.7109 33.7172,48.0442 33,47.5C 32.5002,38.1726 32.3335,28.8393 32.5,19.5C 35.8499,19.335 39.1832,19.5017 42.5,20C 45.2105,22.6278 47.5438,25.4611 49.5,28.5 Z M 37.5,24.5 C 42.9813,24.3121 45.9813,26.9788 46.5,32.5C 43.4816,32.6646 40.4816,32.498 37.5,32C 34.9142,29.506 34.9142,27.006 37.5,24.5 Z M 36.5,40.5 C 41.1585,40.0146 42.4919,41.848 40.5,46C 35.7282,46.8104 34.3948,44.9771 36.5,40.5 Z"/></g>
</svg>
